<?xml version="1.0" encoding="UTF-8" standalone="no"?>
<svg
   xmlns:dc="http://purl.org/dc/elements/1.1/"
   xmlns:cc="http://creativecommons.org/ns#"
   xmlns:rdf="http://www.w3.org/1999/02/22-rdf-syntax-ns#"
   xmlns:svg="http://www.w3.org/2000/svg"
   xmlns="http://www.w3.org/2000/svg"
   xmlns:xlink="http://www.w3.org/1999/xlink"
   width="1366"
   height="768"
   viewBox="0 0 361.42083 203.20001"
   version="1.1"
   id="svg988">
  <defs
     id="defs982">
    <linearGradient
       id="linearGradient852">
      <stop
         id="stop848"
         offset="0"
         style="stop-color:#c5e8ff;stop-opacity:0.99166667" />
      <stop
         id="stop850"
         offset="1"
         style="stop-color:#4a99cf;stop-opacity:0.97916669" />
    </linearGradient>
    <linearGradient
       id="linearGradient1564">
      <stop
         style="stop-color:#11c5c0;stop-opacity:1"
         offset="0"
         id="stop1560" />
      <stop
         style="stop-color:#0beee8;stop-opacity:1"
         offset="1"
         id="stop1562" />
    </linearGradient>
    <linearGradient
       gradientTransform="scale(0.26458334)"
       xlink:href="#linearGradient1564"
       id="linearGradient1566"
       x1="1366"
       y1="768"
       x2="173.33984"
       y2="155.74609"
       gradientUnits="userSpaceOnUse" />
    <radialGradient
       gradientUnits="userSpaceOnUse"
       gradientTransform="matrix(-1.7535507e-7,1.1244509,-2.0000002,-1.2530601e-7,-428.1491,-266.40921)"
       r="180.71042"
       fy="-214.07454"
       fx="236.92381"
       cy="-214.07454"
       cx="236.92381"
       id="radialGradient846"
       xlink:href="#linearGradient852" />
    <filter
       height="1.5"
       y="-0.25"
       width="1.5"
       x="-0.25"
       id="filter865"
       style="color-interpolation-filters:sRGB">
      <feColorMatrix
         id="feColorMatrix837"
         result="result1"
         values="0 0 0 0 0 0 0 0 0 0 0 0 0 0 0 0.21 0.72 0.07 0 0 " />
      <feColorMatrix
         id="feColorMatrix839"
         result="result9"
         values="1 0 0 0 0 0 1 0 0 0 0 0 1 0 0 0 0 0 2 0 " />
      <feComposite
         id="feComposite841"
         result="result4"
         operator="in"
         in="SourceGraphic"
         in2="result9" />
      <feFlood
         id="feFlood843"
         flood-color="rgb(0,0,0)"
         result="result2" />
      <feComposite
         id="feComposite845"
         result="result10"
         operator="in"
         in2="result9" />
      <feComposite
         id="feComposite847"
         operator="atop"
         in2="result4" />
      <feGaussianBlur
         id="feGaussianBlur849"
         result="result8"
         stdDeviation="3" />
      <feOffset
         id="feOffset851"
         in="result8"
         result="result3"
         dy="3"
         dx="3" />
      <feFlood
         id="feFlood853"
         result="result5"
         flood-color="rgb(219,173,62)"
         flood-opacity="1" />
      <feMerge
         id="feMerge861"
         result="result6">
        <feMergeNode
           id="feMergeNode855"
           in="result5" />
        <feMergeNode
           id="feMergeNode857"
           in="result3" />
        <feMergeNode
           id="feMergeNode859"
           in="result4" />
      </feMerge>
      <feComposite
         id="feComposite863"
         result="fbSourceGraphic"
         operator="in"
         in2="SourceGraphic" />
      <feColorMatrix
         id="feColorMatrix1993"
         values="0 0 0 -1 0 0 0 0 -1 0 0 0 0 -1 0 0 0 0 1 0"
         in="fbSourceGraphic"
         result="fbSourceGraphicAlpha" />
      <feGaussianBlur
         stdDeviation="5"
         result="result8"
         in="fbSourceGraphic"
         id="feGaussianBlur1995" />
      <feComposite
         in="fbSourceGraphic"
         operator="xor"
         result="result18"
         id="feComposite1997"
         in2="result8" />
      <feComposite
         in="result8"
         k1="1"
         k2="0.5"
         operator="arithmetic"
         result="result16"
         id="feComposite1999"
         in2="result18" />
      <feComposite
         result="result6"
         operator="atop"
         in="result16"
         id="feComposite2001"
         in2="result8" />
      <feOffset
         result="result17"
         in="result6"
         id="feOffset2003" />
      <feDisplacementMap
         in="result17"
         xChannelSelector="A"
         yChannelSelector="A"
         scale="100"
         result="result4"
         id="feDisplacementMap2005"
         in2="result16" />
      <feComposite
         result="result2"
         operator="arithmetic"
         in="result17"
         k3="1"
         id="feComposite2007"
         in2="result4" />
      <feComposite
         result="fbSourceGraphic"
         in="result2"
         operator="out"
         id="feComposite2009"
         in2="result17" />
      <feComposite
         in="fbSourceGraphic"
         operator="over"
         result="result14"
         id="feComposite2011"
         in2="fbSourceGraphic" />
      <feComposite
         result="result15"
         operator="in"
         in="result14"
         id="feComposite2013"
         in2="fbSourceGraphic" />
    </filter>
  </defs>
  <metadata
     id="metadata985">
    <rdf:RDF>
      <cc:Work
         rdf:about="">
        <dc:format>image/svg+xml</dc:format>
        <dc:type
           rdf:resource="http://purl.org/dc/dcmitype/StillImage" />
        <dc:title></dc:title>
      </cc:Work>
    </rdf:RDF>
  </metadata>
  <rect
     y="1.9051758e-05"
     x="0"
     height="203.2"
     width="361.42084"
     id="rect1557"
     style="opacity:1;fill:url(#radialGradient846);fill-opacity:1;stroke:none;stroke-width:1.22882152;stroke-linecap:butt;stroke-linejoin:round;stroke-miterlimit:4;stroke-dasharray:none;stroke-dashoffset:0;stroke-opacity:1;paint-order:normal" />
  <path
     id="rect1549"
     d="M 182.362,6.5210491 100.61402,60.332754 45.862834,41.207821 0,74.877085 V 203.20001 H 361.42084 V 74.877085 32.598012 l -85.5989,25.207246 -15.61353,-10.538892 -23.7324,6.003251 z"
     style="opacity:1;fill:url(#linearGradient1566);fill-opacity:1;stroke:none;stroke-width:0.3602477;stroke-linecap:butt;stroke-linejoin:round;stroke-miterlimit:4;stroke-dasharray:none;stroke-dashoffset:0;stroke-opacity:1;paint-order:normal" />
  <g
     id="g828" />
  <path
     d="m 188.13802,34.67045 c -0.11692,-0.368396 -0.38452,-0.669809 -0.59465,-0.669809 -0.21014,0 -0.56213,-0.545555 -0.78218,-1.212334 -0.32505,-0.984885 -0.7706,-1.455319 -2.37488,-2.507472 -1.08613,-0.71233 -3.0169,-1.817509 -4.2906,-2.455966 -1.2737,-0.638456 -2.62477,-1.409713 -3.00237,-1.713905 l -0.68655,-0.553089 0.90071,0.427551 c 0.4954,0.235143 1.84646,0.731654 3.00237,1.103353 1.1559,0.371699 3.10012,1.28969 4.32046,2.039989 2.68303,1.649587 3.64606,1.697632 6.57172,0.327932 1.10989,-0.519615 3.43659,-1.319819 5.17045,-1.778225 1.73387,-0.458405 3.38893,-0.926729 3.6779,-1.040726 0.28898,-0.113997 0.52542,-0.126286 0.52542,-0.02735 0,0.205844 -5.64385,2.886661 -6.07718,2.886661 -0.15674,0 -1.28533,0.501332 -2.50799,1.114065 -2.1924,1.098722 -2.91098,1.921235 -2.25316,2.579039 0.45142,0.451438 0.41436,0.81044 -0.0836,0.81044 -0.22756,0 -0.61387,0.301413 -0.85848,0.669809 l -0.44473,0.669811 -0.21258,-0.669811 z m 32.15119,17.833989 c -0.92634,-0.727382 1.31713,-0.869003 4.54947,-0.63588 2.43897,0.175898 2.35268,0.04201 1.24001,-0.419277 -1.11267,-0.46129 -2.34239,-0.673215 -4.57294,-0.717164 -2.45366,-0.04834 -4.55603,-0.522988 -6.24978,-0.990506 -2.23872,-0.617951 -5.64057,-0.224738 -4.96136,0.470988 0.24817,0.198562 1.16538,0.02017 2.20893,0.08024 2.65822,0.153018 4.41953,0.82804 4.62917,1.420675 0.3753,1.060959 0.95024,1.793997 2.07457,1.721951 1.06725,-0.06839 2.00827,-0.203648 1.08193,-0.93103 z m -84.88495,-9.068958 c 0.50917,-0.295853 0.45691,-0.383388 -0.57713,-0.966638 -0.62535,-0.352738 -1.1916,-0.807387 -1.25834,-1.010349 -0.21212,-0.645163 2.89516,-3.651006 3.98569,-3.85559 0.5413,-0.10156 2.49912,0.03756 4.35072,0.309072 1.85159,0.271535 3.43161,0.42863 3.51115,0.349084 0.26877,-0.268766 -2.45196,-1.477935 -4.56724,-2.029798 -1.15591,-0.30156 -3.01976,-0.550616 -4.14189,-0.553441 -2.22634,-0.0057 -2.23172,-0.0023 -4.32231,2.615795 -0.82884,1.037991 -1.16984,1.228198 -2.52404,1.40784 -0.94501,0.125356 -1.63873,0.08965 -1.74985,-0.09021 -0.31201,-0.504829 -3.02025,-1.536692 -4.03322,-1.536692 -1.24439,0 -2.11077,0.62897 -3.01737,2.190547 -0.86533,1.490484 -1.32306,3.513939 -0.79489,3.513939 0.19231,0 1.28005,-0.751728 2.41721,-1.670513 1.9814,-1.600885 3.87513,-2.472101 4.51454,-2.076924 0.1656,0.102354 0.22337,0.311864 0.12836,0.465588 -0.095,0.153714 0.0115,0.27949 0.23645,0.27949 0.22504,0 0.86496,0.470252 1.42204,1.045004 1.51309,1.5611 5.00162,2.43799 6.42012,1.613786 z M 51.538977,22.417018 c 0.548663,-0.424181 0.552033,-0.469015 0.05742,-0.765503 -0.775909,-0.465078 -0.640862,-1.536817 0.369373,-2.931404 1.25373,-1.730711 2.222002,-2.131982 5.779879,-2.395244 l 3.083022,-0.22813 -1.05083,-0.57044 c -0.694754,-0.377147 -1.872353,-0.61524 -3.475224,-0.70265 -3.110058,-0.1696 -3.996151,0.254195 -5.277115,2.523937 -0.627541,1.111932 -1.277833,1.828187 -1.951512,2.149435 -0.982127,0.468346 -1.066916,0.454922 -3.034461,-0.480249 -2.929463,-1.392397 -4.102977,-1.397016 -6.175363,-0.02428 -1.397741,0.925832 -2.819301,2.559034 -2.502853,2.875494 0.09169,0.09169 1.339461,-0.336999 2.772822,-0.952635 1.759761,-0.755835 3.057508,-1.119353 3.996084,-1.119353 1.648487,0 3.638172,0.75722 3.638172,1.38459 0,0.606785 1.578995,1.687057 2.465905,1.687057 0.397061,0 0.984181,-0.202757 1.304715,-0.450576 z M 241.99915,12.963679 c 0.46467,-0.129895 1.03751,-0.396074 1.27298,-0.591489 0.36159,-0.300097 0.3112,-0.447274 -0.32427,-0.947132 l -0.75237,-0.591818 0.66789,-1.1883567 c 0.58009,-1.032136 1.46468,-1.998877 3.87667,-4.2367426 0.30967,-0.2873077 1.67903,-1.07175 3.04302,-1.7432164 2.53588,-1.24834 3.72763,-2.0878404 2.9639,-2.0878404 -0.8896,0 -5.99342,1.8941724 -7.42186,2.7544614 -1.14256,0.6881133 -1.83166,1.4178492 -2.70213,2.86148 -0.79498,1.318468 -1.65454,1.8924249 -2.21925,2.4544 l -1.05084,0.5165947 -2.40188,-1.1650377 c -2.33941,-1.134729 -2.46829,-1.161214 -4.95391,-1.017997 -2.53424,0.146008 -4.50354,0.631524 -4.50354,1.110298 0,0.137384 1.72261,0.227438 3.82801,0.200102 4.74397,-0.06162 6.69284,0.470672 7.6474,2.0885547 0.76927,1.303818 1.90612,1.897986 3.03018,1.583739 z m -121.65157,1.233174 c 0.50165,-0.368136 0.50856,-0.441952 0.075,-0.801725 -1.51404,-1.256555 0.68934,-4.0910853 6.07222,-7.8115719 0.93875,-0.6488395 2.11214,-1.5283285 2.60753,-1.9544277 l 0.90071,-0.7747288 -1.6513,0.7130891 c -5.66915,2.4481013 -6.83653,3.2201748 -8.71632,5.7647526 -1.53585,2.0790127 -2.66191,2.3217017 -4.19384,0.9038417 -1.85461,-1.7165166 -3.0692,-2.3675802 -6.75532,-3.6211514 -0.76006,-0.2584736 3.84341,2.4065921 5.25414,3.0417689 1.54182,0.6941845 2.10165,1.3001765 2.10165,2.2749165 0,0.979619 1.16682,2.33938 2.01295,2.345814 0.29648,0.0023 0.80927,0.07626 1.13953,0.164494 0.33026,0.08817 0.8491,-0.02213 1.153,-0.245072 z"
     style="fill:#000000;stroke-width:0.30023628"
     id="path826-3" />
</svg>
