<?xml version="1.0" encoding="UTF-8" standalone="no"?>
<svg
   xmlns:dc="http://purl.org/dc/elements/1.1/"
   xmlns:cc="http://creativecommons.org/ns#"
   xmlns:rdf="http://www.w3.org/1999/02/22-rdf-syntax-ns#"
   xmlns:svg="http://www.w3.org/2000/svg"
   xmlns="http://www.w3.org/2000/svg"
   xmlns:xlink="http://www.w3.org/1999/xlink"
   width="1366"
   height="768"
   viewBox="0 0 361.42083 203.20001"
   version="1.1"
   id="svg8">
  <defs
     id="defs2">
    <linearGradient
       id="linearGradient890">
      <stop
         style="stop-color:#ff0400;stop-opacity:1"
         offset="0"
         id="stop886" />
      <stop
         style="stop-color:#ff0400;stop-opacity:0"
         offset="1"
         id="stop888" />
    </linearGradient>
    <linearGradient
       id="linearGradient865">
      <stop
         id="stop861"
         offset="0"
         style="stop-color:#ff0400;stop-opacity:0.99166667" />
      <stop
         id="stop863"
         offset="1"
         style="stop-color:#ff0400;stop-opacity:0" />
    </linearGradient>
    <linearGradient
       id="linearGradient858">
      <stop
         style="stop-color:#ff333f;stop-opacity:0.94117647"
         offset="0"
         id="stop854" />
      <stop
         style="stop-color:#ff3330;stop-opacity:0"
         offset="1"
         id="stop856" />
    </linearGradient>
    <linearGradient
       id="linearGradient849">
      <stop
         id="stop845"
         offset="0"
         style="stop-color:#2675c5;stop-opacity:1" />
      <stop
         id="stop847"
         offset="1"
         style="stop-color:#2673c5;stop-opacity:0" />
    </linearGradient>
    <linearGradient
       id="linearGradient911">
      <stop
         style="stop-color:#080000;stop-opacity:1"
         offset="0"
         id="stop907" />
      <stop
         style="stop-color:#a29d9d;stop-opacity:0.00416667"
         offset="1"
         id="stop909" />
    </linearGradient>
    <linearGradient
       id="linearGradient841">
      <stop
         id="stop837"
         offset="0"
         style="stop-color:#080000;stop-opacity:1" />
      <stop
         id="stop839"
         offset="1"
         style="stop-color:#a29d9d;stop-opacity:0" />
    </linearGradient>
    <linearGradient
       id="linearGradient821">
      <stop
         style="stop-color:#242424;stop-opacity:1;"
         offset="0"
         id="stop817" />
      <stop
         style="stop-color:#0c0c0c;stop-opacity:1"
         offset="1"
         id="stop819" />
    </linearGradient>
    <radialGradient
       xlink:href="#linearGradient821"
       id="radialGradient823"
       cx="167.31072"
       cy="174.05601"
       fx="167.31072"
       fy="174.05601"
       r="109.58051"
       gradientTransform="matrix(1.6491112,0,0,0.92717227,-95.203544,-59.779884)"
       gradientUnits="userSpaceOnUse" />
    <linearGradient
       gradientTransform="matrix(0.80455524,0,0,0.66034341,53.84866,-25.428565)"
       xlink:href="#linearGradient841"
       id="linearGradient913"
       x1="263.6778"
       y1="191.52811"
       x2="40.499882"
       y2="191.6041"
       gradientUnits="userSpaceOnUse" />
    <linearGradient
       gradientTransform="matrix(0.8045551,0,0,0.66034347,53.835219,-25.439673)"
       xlink:href="#linearGradient911"
       id="linearGradient915"
       x1="36.988976"
       y1="191.5661"
       x2="267.18869"
       y2="191.5661"
       gradientUnits="userSpaceOnUse" />
    <radialGradient
       xlink:href="#linearGradient865"
       id="radialGradient949"
       cx="152.08884"
       cy="191.5661"
       fx="152.08884"
       fy="191.5661"
       r="115.09986"
       gradientTransform="matrix(3.0820242,0.02315046,-0.00339516,0.52065216,-291.7881,-1.9762579)"
       gradientUnits="userSpaceOnUse" />
    <radialGradient
       xlink:href="#linearGradient865"
       id="radialGradient949-9"
       cx="152.08884"
       cy="191.5661"
       fx="152.08884"
       fy="191.5661"
       r="115.09986"
       gradientTransform="matrix(3.3722319,0.0246328,-0.00371486,0.55398992,-336.09989,-8.9067895)"
       gradientUnits="userSpaceOnUse" />
    <radialGradient
       xlink:href="#linearGradient865"
       id="radialGradient949-9-0"
       cx="152.08884"
       cy="191.5661"
       fx="152.08884"
       fy="191.5661"
       r="115.09986"
       gradientTransform="matrix(3.5163739,0.02568569,-0.00387364,0.57766929,-358.05369,-13.461683)"
       gradientUnits="userSpaceOnUse" />
    <linearGradient
       xlink:href="#linearGradient890"
       id="linearGradient1148"
       x1="345.52295"
       y1="311.92142"
       x2="357.06094"
       y2="293.34311"
       gradientUnits="userSpaceOnUse"
       gradientTransform="rotate(-60,243.63355,252.85215)" />
    <linearGradient
       xlink:href="#linearGradient865"
       id="linearGradient1285"
       gradientUnits="userSpaceOnUse"
       gradientTransform="rotate(120,268.03576,65.271252)"
       x1="345.52295"
       y1="311.92142"
       x2="357.06094"
       y2="293.34311" />
  </defs>
  <metadata
     id="metadata5">
    <rdf:RDF>
      <cc:Work
         rdf:about="">
        <dc:format>image/svg+xml</dc:format>
        <dc:type
           rdf:resource="http://purl.org/dc/dcmitype/StillImage" />
        <dc:title></dc:title>
      </cc:Work>
    </rdf:RDF>
  </metadata>
  <rect
     y="3.7929688e-06"
     x="0"
     height="203.2"
     width="361.42084"
     id="rect815"
     style="opacity:1;fill:url(#radialGradient823);fill-opacity:1;stroke:none;stroke-width:0.66467416;stroke-linecap:butt;stroke-linejoin:round;stroke-miterlimit:4;stroke-dasharray:none;stroke-dashoffset:0;stroke-opacity:1;paint-order:normal" />
  <path
     d="m 86.433048,101.09593 44.863272,-63.827383 89.77948,-0.02509 44.91622,63.802303 -44.86328,63.82739 -89.77948,0.0251 z"
     id="path825"
     style="opacity:1;fill:#252324;fill-opacity:1;stroke:url(#linearGradient913);stroke-width:5.11820936;stroke-linecap:round;stroke-linejoin:round;stroke-miterlimit:4;stroke-dasharray:none;stroke-dashoffset:0;stroke-opacity:1;paint-order:stroke markers fill" />
  <path
     d="m 76.086954,101.31195 50.078456,-71.202142 100.21601,-0.02799 50.13755,71.174152 -50.07846,71.20215 -100.21601,0.028 z"
     id="path825-5-2"
     style="opacity:1;fill:none;fill-opacity:1;stroke:url(#radialGradient949);stroke-width:5.38247347;stroke-linecap:butt;stroke-linejoin:round;stroke-miterlimit:4;stroke-dasharray:none;stroke-dashoffset:0;stroke-opacity:1;paint-order:stroke markers fill" />
  <path
     d="m 66.414795,100.99505 54.793915,-75.761278 109.65249,-0.02978 54.85857,75.731498 -54.79392,75.76128 -109.65248,0.0298 z"
     id="path825-5-2-7"
     style="opacity:1;fill:none;fill-opacity:1;stroke:url(#radialGradient949-9);stroke-width:2.63028836;stroke-linecap:butt;stroke-linejoin:round;stroke-miterlimit:4;stroke-dasharray:none;stroke-dashoffset:0;stroke-opacity:1;paint-order:stroke markers fill" />
  <path
     d="m 86.419602,101.08484 44.863258,-63.827395 89.77947,-0.02509 44.91621,63.802305 -44.86327,63.8274 -89.77946,0.0251 z"
     id="path825-5"
     style="opacity:1;fill:none;fill-opacity:1;stroke:url(#linearGradient915);stroke-width:5.11820889;stroke-linecap:butt;stroke-linejoin:round;stroke-miterlimit:4;stroke-dasharray:none;stroke-dashoffset:0;stroke-opacity:1;paint-order:stroke markers fill" />
  <path
     id="path825-5-2-7-6"
     d="m 233.14064,21.516456 -114.33835,0.0303 a 0.74069538,0.59081599 0 0 0 -0.64241,0.29692 L 61.023723,100.84192 a 0.74069538,0.59081599 0 0 0 0.002,0.59063 l 57.202197,78.96951 a 0.74069538,0.59081599 0 0 0 0.64241,0.29532 l 114.33836,-0.0319 a 0.74069538,0.59081599 0 0 0 0.6424,-0.29531 l 57.13616,-78.99984 a 0.74069538,0.59081599 0 0 0 -0.002,-0.59063 l -57.2022,-78.967924 a 0.74069538,0.59081599 0 0 0 -0.6424,-0.29531 z m -0.42627,1.18126 56.77593,78.378884 -56.70989,78.4076 -113.48381,0.0319 -56.77593,-78.37887 56.70989,-78.409204 z"
     style="color:#000000;font-style:normal;font-variant:normal;font-weight:normal;font-stretch:normal;font-size:medium;line-height:normal;font-family:sans-serif;font-variant-ligatures:normal;font-variant-position:normal;font-variant-caps:normal;font-variant-numeric:normal;font-variant-alternates:normal;font-feature-settings:normal;text-indent:0;text-align:start;text-decoration:none;text-decoration-line:none;text-decoration-style:solid;text-decoration-color:#000000;letter-spacing:normal;word-spacing:normal;text-transform:none;writing-mode:lr-tb;direction:ltr;text-orientation:mixed;dominant-baseline:auto;baseline-shift:baseline;text-anchor:start;white-space:normal;shape-padding:0;clip-rule:nonzero;display:inline;overflow:visible;visibility:visible;opacity:1;isolation:auto;mix-blend-mode:normal;color-interpolation:sRGB;color-interpolation-filters:linearRGB;solid-color:#000000;solid-opacity:1;vector-effect:none;fill:url(#radialGradient949-9-0);fill-opacity:1.0;fill-rule:nonzero;stroke:none;stroke-width:1.32291675;stroke-linecap:butt;stroke-linejoin:round;stroke-miterlimit:4;stroke-dasharray:none;stroke-dashoffset:0;stroke-opacity:1;paint-order:stroke markers fill;color-rendering:auto;image-rendering:auto;shape-rendering:auto;text-rendering:auto;enable-background:accumulate" />
  <path
     d="m 324.81528,176.04076 5.22673,-9.05696 10.4569,-0.002 5.23059,9.05472 -5.22673,9.05695 -10.45691,0.002 z m 0.004,18.1119 5.22673,-9.05696 10.4569,-0.002 5.23059,9.05472 -5.22673,9.05695 -10.45691,0.002 z m 15.68324,-9.05963 5.22673,-9.05696 10.4569,-0.002 5.23059,9.05472 -5.22673,9.05695 -10.45691,0.002 z m 15.68349,-9.05963 5.22673,-9.05696 10.4569,-0.002 5.23059,9.05472 -5.22673,9.05695 -10.45691,0.002 z m 0.004,18.1119 5.22672,-9.05696 10.45691,-0.002 5.23059,9.05472 -5.22673,9.05695 -10.45691,0.002 z m -15.68324,9.05963 5.22672,-9.05696 10.45691,-0.002 5.23058,9.05472 -5.22672,9.05695 -10.45691,0.002 z m -31.37073,0.007 5.22672,-9.05696 10.45691,-0.002 5.23058,9.05472 -5.22672,9.05695 -10.45691,0.002 z"
     style="opacity:1;fill:none;fill-opacity:1;stroke:url(#linearGradient1148);stroke-width:1.19062507;stroke-linecap:round;stroke-linejoin:round;stroke-miterlimit:4;stroke-dasharray:none;stroke-dashoffset:0;stroke-opacity:1;paint-order:stroke markers fill"
     id="path1007-7-9" />
  <path
     d="m 36.60532,27.15926 -5.22673,9.05696 -10.4569,0.002 -5.23059,-9.05472 5.22673,-9.05695 10.45691,-0.002 z m -0.004,-18.1119 -5.22673,9.05696 -10.4569,0.002 -5.23059,-9.05472 5.22673,-9.05695 10.45691,-0.002 z m -15.68324,9.05963 -5.22673,9.05696 -10.4569,0.002 -5.23059,-9.05472 5.22673,-9.05695 10.45691,-0.002 z m -15.68349,9.05963 -5.22673,9.05696 -10.4569,0.002 -5.23059,-9.05472 5.22673,-9.05695 10.45691,-0.002 z m -0.004,-18.1119 -5.22672,9.05696 -10.45691,0.002 L -15.68363,9.05896 -10.4569,0.00201 9.9999999e-6,1e-5 Z M 20.91383,-0.00491 15.68711,9.05205 5.2302,9.05405 -3.8e-4,-6.7e-4 l 5.22672,-9.05695 10.45691,-0.002 z m 31.37073,-0.007 -5.22672,9.05696 -10.45691,0.002 -5.23058,-9.05472 5.22672,-9.05695 10.45691,-0.002 z"
     style="opacity:1;fill:none;fill-opacity:1;stroke:url(#linearGradient1285);stroke-width:1.19062507;stroke-linecap:round;stroke-linejoin:round;stroke-miterlimit:4;stroke-dasharray:none;stroke-dashoffset:0;stroke-opacity:1;paint-order:stroke markers fill"
     id="path1007-7-9-7" />
</svg>
